<svg xmlns="http://www.w3.org/2000/svg" width="640" height="180" viewBox="0 0 640 180" fill="none">
  <rect width="640" height="180" fill="transparent"/>
  <g fill="#14b86c" opacity="0.75">
<circle cx="0.0" cy="110.0" r="2.2" fill="#14b86c" opacity="0.55"/>
<circle cx="20.0" cy="113.1" r="2.2" fill="#14b86c" opacity="0.55"/>
<circle cx="40.0" cy="116.2" r="2.2" fill="#14b86c" opacity="0.55"/>
<circle cx="60.0" cy="119.1" r="2.2" fill="#14b86c" opacity="0.55"/>
<circle cx="80.0" cy="121.8" r="2.2" fill="#14b86c" opacity="0.55"/>
<circle cx="100.0" cy="124.1" r="2.2" fill="#14b86c" opacity="0.55"/>
<circle cx="120.0" cy="126.2" r="2.2" fill="#14b86c" opacity="0.55"/>
<circle cx="140.0" cy="127.8" r="2.2" fill="#14b86c" opacity="0.55"/>
<circle cx="160.0" cy="129.0" r="2.2" fill="#14b86c" opacity="0.55"/>
<circle cx="180.0" cy="129.8" r="2.2" fill="#14b86c" opacity="0.55"/>
<circle cx="200.0" cy="130.0" r="2.2" fill="#14b86c" opacity="0.55"/>
<circle cx="220.0" cy="129.8" r="2.2" fill="#14b86c" opacity="0.55"/>
<circle cx="240.0" cy="129.0" r="2.2" fill="#14b86c" opacity="0.55"/>
<circle cx="260.0" cy="127.8" r="2.2" fill="#14b86c" opacity="0.55"/>
<circle cx="280.0" cy="126.2" r="2.2" fill="#14b86c" opacity="0.55"/>
<circle cx="300.0" cy="124.1" r="2.2" fill="#14b86c" opacity="0.55"/>
<circle cx="320.0" cy="121.8" r="2.2" fill="#14b86c" opacity="0.55"/>
<circle cx="340.0" cy="119.1" r="2.2" fill="#14b86c" opacity="0.55"/>
<circle cx="360.0" cy="116.2" r="2.2" fill="#14b86c" opacity="0.55"/>
<circle cx="380.0" cy="113.1" r="2.2" fill="#14b86c" opacity="0.55"/>
<circle cx="400.0" cy="110.0" r="2.2" fill="#14b86c" opacity="0.55"/>
<circle cx="420.0" cy="106.9" r="2.2" fill="#14b86c" opacity="0.55"/>
<circle cx="440.0" cy="103.8" r="2.2" fill="#14b86c" opacity="0.55"/>
<circle cx="460.0" cy="100.9" r="2.2" fill="#14b86c" opacity="0.55"/>
<circle cx="480.0" cy="98.2" r="2.2" fill="#14b86c" opacity="0.55"/>
<circle cx="500.0" cy="95.9" r="2.2" fill="#14b86c" opacity="0.55"/>
<circle cx="520.0" cy="93.8" r="2.2" fill="#14b86c" opacity="0.55"/>
<circle cx="540.0" cy="92.2" r="2.2" fill="#14b86c" opacity="0.55"/>
<circle cx="560.0" cy="91.0" r="2.2" fill="#14b86c" opacity="0.55"/>
<circle cx="580.0" cy="90.2" r="2.2" fill="#14b86c" opacity="0.55"/>
<circle cx="600.0" cy="90.0" r="2.2" fill="#14b86c" opacity="0.55"/>
<circle cx="620.0" cy="90.2" r="2.2" fill="#14b86c" opacity="0.55"/>
<circle cx="640.0" cy="91.0" r="2.2" fill="#14b86c" opacity="0.55"/>
<circle cx="0.0" cy="137.6" r="2.1" fill="#14b86c" opacity="0.45"/>
<circle cx="20.0" cy="141.6" r="2.1" fill="#14b86c" opacity="0.45"/>
<circle cx="40.0" cy="145.3" r="2.1" fill="#14b86c" opacity="0.45"/>
<circle cx="60.0" cy="148.5" r="2.1" fill="#14b86c" opacity="0.45"/>
<circle cx="80.0" cy="151.2" r="2.1" fill="#14b86c" opacity="0.45"/>
<circle cx="100.0" cy="153.4" r="2.1" fill="#14b86c" opacity="0.45"/>
<circle cx="120.0" cy="154.9" r="2.1" fill="#14b86c" opacity="0.45"/>
<circle cx="140.0" cy="155.8" r="2.1" fill="#14b86c" opacity="0.45"/>
<circle cx="160.0" cy="156.0" r="2.1" fill="#14b86c" opacity="0.45"/>
<circle cx="180.0" cy="155.5" r="2.1" fill="#14b86c" opacity="0.45"/>
<circle cx="200.0" cy="154.3" r="2.1" fill="#14b86c" opacity="0.45"/>
<circle cx="220.0" cy="152.5" r="2.1" fill="#14b86c" opacity="0.45"/>
<circle cx="240.0" cy="150.0" r="2.1" fill="#14b86c" opacity="0.45"/>
<circle cx="260.0" cy="147.1" r="2.1" fill="#14b86c" opacity="0.45"/>
<circle cx="280.0" cy="143.6" r="2.1" fill="#14b86c" opacity="0.45"/>
<circle cx="300.0" cy="139.8" r="2.1" fill="#14b86c" opacity="0.45"/>
<circle cx="320.0" cy="135.7" r="2.1" fill="#14b86c" opacity="0.45"/>
<circle cx="340.0" cy="131.4" r="2.1" fill="#14b86c" opacity="0.45"/>
<circle cx="360.0" cy="127.0" r="2.1" fill="#14b86c" opacity="0.45"/>
<circle cx="380.0" cy="122.6" r="2.1" fill="#14b86c" opacity="0.45"/>
<circle cx="400.0" cy="118.4" r="2.1" fill="#14b86c" opacity="0.45"/>
<circle cx="420.0" cy="114.4" r="2.1" fill="#14b86c" opacity="0.45"/>
<circle cx="440.0" cy="110.7" r="2.1" fill="#14b86c" opacity="0.45"/>
<circle cx="460.0" cy="107.5" r="2.1" fill="#14b86c" opacity="0.45"/>
<circle cx="480.0" cy="104.8" r="2.1" fill="#14b86c" opacity="0.45"/>
<circle cx="500.0" cy="102.6" r="2.1" fill="#14b86c" opacity="0.45"/>
<circle cx="520.0" cy="101.1" r="2.1" fill="#14b86c" opacity="0.45"/>
<circle cx="540.0" cy="100.2" r="2.1" fill="#14b86c" opacity="0.45"/>
<circle cx="560.0" cy="100.0" r="2.1" fill="#14b86c" opacity="0.45"/>
<circle cx="580.0" cy="100.5" r="2.1" fill="#14b86c" opacity="0.45"/>
<circle cx="600.0" cy="101.7" r="2.1" fill="#14b86c" opacity="0.45"/>
<circle cx="620.0" cy="103.5" r="2.1" fill="#14b86c" opacity="0.45"/>
<circle cx="640.0" cy="106.0" r="2.1" fill="#14b86c" opacity="0.45"/>
<circle cx="0.0" cy="169.2" r="1.8" fill="#14b86c" opacity="0.35"/>
<circle cx="20.0" cy="173.2" r="1.8" fill="#14b86c" opacity="0.35"/>
<circle cx="40.0" cy="176.6" r="1.8" fill="#14b86c" opacity="0.35"/>
<circle cx="60.0" cy="179.2" r="1.8" fill="#14b86c" opacity="0.35"/>
<circle cx="80.0" cy="180.9" r="1.8" fill="#14b86c" opacity="0.35"/>
<circle cx="100.0" cy="181.9" r="1.8" fill="#14b86c" opacity="0.35"/>
<circle cx="120.0" cy="181.9" r="1.8" fill="#14b86c" opacity="0.35"/>
<circle cx="140.0" cy="181.1" r="1.8" fill="#14b86c" opacity="0.35"/>
<circle cx="160.0" cy="179.4" r="1.8" fill="#14b86c" opacity="0.35"/>
<circle cx="180.0" cy="176.8" r="1.8" fill="#14b86c" opacity="0.35"/>
<circle cx="200.0" cy="173.5" r="1.8" fill="#14b86c" opacity="0.35"/>
<circle cx="220.0" cy="169.6" r="1.8" fill="#14b86c" opacity="0.35"/>
<circle cx="240.0" cy="165.0" r="1.8" fill="#14b86c" opacity="0.35"/>
<circle cx="260.0" cy="160.0" r="1.8" fill="#14b86c" opacity="0.35"/>
<circle cx="280.0" cy="154.6" r="1.8" fill="#14b86c" opacity="0.35"/>
<circle cx="300.0" cy="149.1" r="1.8" fill="#14b86c" opacity="0.35"/>
<circle cx="320.0" cy="143.4" r="1.8" fill="#14b86c" opacity="0.35"/>
<circle cx="340.0" cy="137.8" r="1.8" fill="#14b86c" opacity="0.35"/>
<circle cx="360.0" cy="132.5" r="1.8" fill="#14b86c" opacity="0.35"/>
<circle cx="380.0" cy="127.4" r="1.8" fill="#14b86c" opacity="0.35"/>
<circle cx="400.0" cy="122.8" r="1.8" fill="#14b86c" opacity="0.35"/>
<circle cx="420.0" cy="118.8" r="1.8" fill="#14b86c" opacity="0.35"/>
<circle cx="440.0" cy="115.4" r="1.8" fill="#14b86c" opacity="0.35"/>
<circle cx="460.0" cy="112.8" r="1.8" fill="#14b86c" opacity="0.35"/>
<circle cx="480.0" cy="111.1" r="1.8" fill="#14b86c" opacity="0.35"/>
<circle cx="500.0" cy="110.1" r="1.8" fill="#14b86c" opacity="0.35"/>
<circle cx="520.0" cy="110.1" r="1.8" fill="#14b86c" opacity="0.35"/>
<circle cx="540.0" cy="110.9" r="1.8" fill="#14b86c" opacity="0.35"/>
<circle cx="560.0" cy="112.6" r="1.8" fill="#14b86c" opacity="0.35"/>
<circle cx="580.0" cy="115.2" r="1.8" fill="#14b86c" opacity="0.35"/>
<circle cx="600.0" cy="118.5" r="1.8" fill="#14b86c" opacity="0.35"/>
<circle cx="620.0" cy="122.4" r="1.8" fill="#14b86c" opacity="0.35"/>
<circle cx="640.0" cy="127.0" r="1.8" fill="#14b86c" opacity="0.35"/>
<circle cx="0.0" cy="202.2" r="1.5" fill="#14b86c" opacity="0.25"/>
<circle cx="20.0" cy="205.1" r="1.5" fill="#14b86c" opacity="0.25"/>
<circle cx="40.0" cy="207.1" r="1.5" fill="#14b86c" opacity="0.25"/>
<circle cx="60.0" cy="207.9" r="1.5" fill="#14b86c" opacity="0.25"/>
<circle cx="80.0" cy="207.7" r="1.5" fill="#14b86c" opacity="0.25"/>
<circle cx="100.0" cy="206.5" r="1.5" fill="#14b86c" opacity="0.25"/>
<circle cx="120.0" cy="204.1" r="1.5" fill="#14b86c" opacity="0.25"/>
<circle cx="140.0" cy="200.8" r="1.5" fill="#14b86c" opacity="0.25"/>
<circle cx="160.0" cy="196.6" r="1.5" fill="#14b86c" opacity="0.25"/>
<circle cx="180.0" cy="191.6" r="1.5" fill="#14b86c" opacity="0.25"/>
<circle cx="200.0" cy="185.9" r="1.5" fill="#14b86c" opacity="0.25"/>
<circle cx="220.0" cy="179.7" r="1.5" fill="#14b86c" opacity="0.25"/>
<circle cx="240.0" cy="173.0" r="1.5" fill="#14b86c" opacity="0.25"/>
<circle cx="260.0" cy="166.2" r="1.5" fill="#14b86c" opacity="0.25"/>
<circle cx="280.0" cy="159.3" r="1.5" fill="#14b86c" opacity="0.25"/>
<circle cx="300.0" cy="152.5" r="1.5" fill="#14b86c" opacity="0.25"/>
<circle cx="320.0" cy="146.0" r="1.5" fill="#14b86c" opacity="0.25"/>
<circle cx="340.0" cy="139.9" r="1.5" fill="#14b86c" opacity="0.25"/>
<circle cx="360.0" cy="134.5" r="1.5" fill="#14b86c" opacity="0.25"/>
<circle cx="380.0" cy="129.7" r="1.5" fill="#14b86c" opacity="0.25"/>
<circle cx="400.0" cy="125.8" r="1.5" fill="#14b86c" opacity="0.25"/>
<circle cx="420.0" cy="122.9" r="1.5" fill="#14b86c" opacity="0.25"/>
<circle cx="440.0" cy="120.9" r="1.5" fill="#14b86c" opacity="0.25"/>
<circle cx="460.0" cy="120.1" r="1.5" fill="#14b86c" opacity="0.25"/>
<circle cx="480.0" cy="120.3" r="1.5" fill="#14b86c" opacity="0.25"/>
<circle cx="500.0" cy="121.5" r="1.5" fill="#14b86c" opacity="0.25"/>
<circle cx="520.0" cy="123.9" r="1.5" fill="#14b86c" opacity="0.25"/>
<circle cx="540.0" cy="127.2" r="1.5" fill="#14b86c" opacity="0.25"/>
<circle cx="560.0" cy="131.4" r="1.5" fill="#14b86c" opacity="0.25"/>
<circle cx="580.0" cy="136.4" r="1.5" fill="#14b86c" opacity="0.25"/>
<circle cx="600.0" cy="142.1" r="1.5" fill="#14b86c" opacity="0.25"/>
<circle cx="620.0" cy="148.3" r="1.5" fill="#14b86c" opacity="0.25"/>
<circle cx="640.0" cy="155.0" r="1.5" fill="#14b86c" opacity="0.25"/>
  </g>
</svg>